<svg xmlns="http://www.w3.org/2000/svg" viewBox="0 0 20 20" class="icn icn-email"><path d="M4 0C1.784 0 0 1.784 0 4v12c0 2.216 1.784 4 4 4h12c2.216 0 4-1.784 4-4V4c0-2.216-1.784-4-4-4H4zm-.275 4.219h12.549c.728 0 1.336.608 1.336 1.337v8.889c0 .728-.608 1.336-1.336 1.336H3.725a1.349 1.349 0 01-1.336-1.336V5.556a1.35 1.35 0 011.336-1.337zm.805 1.4L10 11.281l5.495-5.662H4.53zm-.741.672v7.288L7.37 9.998 3.789 6.291zm12.422.027l-3.601 3.71 3.601 3.601V6.318zm-8.146 4.399l-3.664 3.664h11.148l-3.635-3.635-1.555 1.602a.5.5 0 01-.707.011l-.012-.012-1.575-1.63z"/></svg>